<svg width="80" height="80" viewBox="0 0 80 80" fill="none" xmlns="http://www.w3.org/2000/svg">
<path d="M72.1765 18.0469C73.039 18.0469 73.739 18.7469 73.739 19.6094C73.739 20.4719 73.039 21.1719 72.1765 21.1719C71.314 21.1719 70.614 20.4719 70.614 19.6094C70.614 18.7469 71.314 18.0469 72.1765 18.0469Z" fill="#94D4FF"/>
<path d="M72.1765 58.6719C73.039 58.6719 73.739 59.3719 73.739 60.2344C73.739 61.0969 73.039 61.7969 72.1765 61.7969C71.314 61.7969 70.614 61.0969 70.614 60.2344C70.614 59.3719 71.314 58.6719 72.1765 58.6719Z" fill="#94D4FF"/>
<path d="M64.364 68.0469C66.0906 68.0469 67.489 69.4453 67.489 71.1719C67.489 72.8984 66.0906 74.2969 64.364 74.2969C62.6375 74.2969 61.239 72.8984 61.239 71.1719C61.239 69.4453 62.6375 68.0469 64.364 68.0469Z" fill="#12CDD9"/>
<path d="M61.239 3.98438C62.1015 3.98438 62.8015 4.68437 62.8015 5.54688C62.8015 6.40937 62.1015 7.10938 61.239 7.10938C60.3765 7.10938 59.6765 6.40937 59.6765 5.54688C59.6765 4.68437 60.3765 3.98438 61.239 3.98438Z" fill="#94D4FF"/>
<path d="M39.364 8.67188C22.1046 8.67188 8.11401 22.6625 8.11401 39.9219C8.11401 57.1813 22.1046 71.1719 39.364 71.1719C56.6234 71.1719 70.614 57.1813 70.614 39.9219C70.614 22.6625 56.6234 8.67188 39.364 8.67188Z" fill="#FF8700"/>
<path d="M15.9265 71.1719C16.789 71.1719 17.489 71.8719 17.489 72.7344C17.489 73.5969 16.789 74.2969 15.9265 74.2969C15.0639 74.2969 14.364 73.5969 14.364 72.7344C14.364 71.8719 15.0639 71.1719 15.9265 71.1719Z" fill="#94D4FF"/>
<path d="M12.0203 7.10938C14.1781 7.10938 15.9265 8.85781 15.9265 11.0156C15.9265 13.1734 14.1781 14.9219 12.0203 14.9219C9.86229 14.9219 8.11401 13.1734 8.11401 11.0156C8.11401 8.85781 9.86229 7.10938 12.0203 7.10938Z" fill="#12CDD9"/>
<path d="M6.55151 19.6094C7.41401 19.6094 8.11401 20.3094 8.11401 21.1719C8.11401 22.0344 7.41401 22.7344 6.55151 22.7344C5.68886 22.7344 4.98901 22.0344 4.98901 21.1719C4.98901 20.3094 5.68886 19.6094 6.55151 19.6094Z" fill="#94D4FF"/>
<path d="M6.55151 58.6719C7.41401 58.6719 8.11401 59.3719 8.11401 60.2344C8.11401 61.0969 7.41401 61.7969 6.55151 61.7969C5.68886 61.7969 4.98901 61.0969 4.98901 60.2344C4.98901 59.3719 5.68886 58.6719 6.55151 58.6719Z" fill="#94D4FF"/>
<g clip-path="url(#clip0_225_13461)">
<path d="M39.6812 62.84C32.804 62.84 26.5522 58.9503 23.481 52.8481C16.7585 52.1763 11.5212 46.6059 11.5212 39.74C11.5212 32.8741 16.7585 27.3037 23.481 26.6318C26.5522 20.5297 32.804 16.64 39.6812 16.64C46.5584 16.64 52.8103 20.5297 55.8815 26.6318C62.604 27.3037 67.8412 32.8741 67.8412 39.74C67.8412 46.6059 62.604 52.1763 55.8815 52.8481C52.8103 58.9503 46.5584 62.84 39.6812 62.84Z" fill="#10B2BC"/>
<path d="M55.2415 52.8481C61.964 52.1763 67.2013 46.6059 67.2013 39.74C67.2013 32.8741 61.964 27.3037 55.2415 26.6318C52.1703 20.5297 45.9185 16.64 39.0413 16.64V62.84C45.9185 62.84 52.1703 58.9503 55.2415 52.8481Z" fill="#12CDD9"/>
<path d="M23.1812 72.96C20.4517 72.96 18.2312 70.7395 18.2312 68.01C18.2312 65.2805 20.4517 63.06 23.1812 63.06C25.9107 63.06 28.1312 65.2805 28.1312 68.01C28.1312 70.7395 25.9107 72.96 23.1812 72.96Z" fill="#12CDD9"/>
<path d="M39.6814 46.34H41.3314V49.64H39.6814V46.34Z" fill="#252836"/>
<path d="M46.0813 33.0401C46.0813 34.9906 44.9678 36.8306 43.2013 37.824C42.6252 38.1554 42.2413 38.744 42.2413 39.4064V42.24H38.4013V39.4063C38.4013 37.8608 39.1309 36.3521 40.3213 35.3215C41.0975 34.5777 42.2413 34.3602 42.2413 33.04C42.2413 32.0094 41.3966 31.2 40.3213 31.2C39.246 31.2 38.4013 32.0094 38.4013 33.04H34.5613C34.5613 29.9855 37.134 27.52 40.3213 27.52C43.5086 27.52 46.0813 29.9856 46.0813 33.0401Z" fill="#252836"/>
<path d="M38.4014 46.08H42.2414V49.92H38.4014V46.08Z" fill="#252836"/>
<path d="M46.0813 33.04C46.0813 34.9905 44.9678 36.8305 43.2013 37.824C42.6252 38.1553 42.2413 38.744 42.2413 39.4064V42.24H40.3213V35.3216C41.0975 34.5778 42.2413 34.3603 42.2413 33.04C42.2413 32.0095 41.3966 31.2 40.3213 31.2V27.52C43.5086 27.52 46.0813 29.9855 46.0813 33.04Z" fill="#252836"/>
</g>
<defs>
<clipPath id="clip0_225_13461">
<rect width="56.32" height="56.32" fill="white" transform="translate(11.5212 16.64)"/>
</clipPath>
</defs>
</svg>
