<svg width="21" height="21" viewBox="0 0 21 21" fill="none" xmlns="http://www.w3.org/2000/svg">
<g id="shield (2) 1" clip-path="url(#clip0_184_2863)">
<g id="Group">
<g id="Group_2">
<path id="Vector" d="M18.7637 3.27961L10.9187 0.926094C10.8089 0.893125 10.6918 0.893125 10.582 0.926094L2.73687 3.27961C2.48906 3.35395 2.31934 3.58207 2.31934 3.84082V12.4704C2.31934 13.5928 2.77375 14.7418 3.66988 15.8854C4.3543 16.7588 5.30121 17.6359 6.48422 18.4923C8.4716 19.9309 10.4286 20.8134 10.5109 20.8502C10.5871 20.8843 10.6687 20.9014 10.7504 20.9014C10.832 20.9014 10.9136 20.8843 10.9898 20.8502C11.0721 20.8134 13.029 19.9309 15.0164 18.4923C16.1994 17.6359 17.1463 16.7588 17.8307 15.8854C18.7269 14.7418 19.1812 13.5928 19.1812 12.4704V3.84082C19.1812 3.58207 19.0116 3.35395 18.7637 3.27961Z" fill="#92929D"/>
</g>
</g>
</g>
<defs>
<clipPath id="clip0_184_2863">
<rect width="20" height="20" fill="white" transform="translate(0.75 0.901367)"/>
</clipPath>
</defs>
</svg>
