<svg width="24" height="24" viewBox="0 0 24 24" fill="none" xmlns="http://www.w3.org/2000/svg">
<g id="heart" clip-path="url(#clip0_118_1306)">
<g id="Layer 2">
<g id="heart_2">
<path id="Vector" d="M12.0004 21C11.8688 21.0008 11.7383 20.9756 11.6165 20.9258C11.4946 20.876 11.3838 20.8027 11.2904 20.71L3.52036 12.93C2.54572 11.9452 1.99902 10.6156 1.99902 9.23002C1.99902 7.84445 2.54572 6.51484 3.52036 5.53002C4.50262 4.55053 5.83319 4.00049 7.22036 4.00049C8.60753 4.00049 9.9381 4.55053 10.9204 5.53002L12.0004 6.61002L13.0804 5.53002C14.0626 4.55053 15.3932 4.00049 16.7804 4.00049C18.1675 4.00049 19.4981 4.55053 20.4804 5.53002C21.455 6.51484 22.0017 7.84445 22.0017 9.23002C22.0017 10.6156 21.455 11.9452 20.4804 12.93L12.7104 20.71C12.6169 20.8027 12.5061 20.876 12.3843 20.9258C12.2624 20.9756 12.132 21.0008 12.0004 21Z" fill="#FB4141"/>
</g>
</g>
</g>
<defs>
<clipPath id="clip0_118_1306">
<rect width="24" height="24" fill="white"/>
</clipPath>
</defs>
</svg>
