<svg width="78" height="80" viewBox="0 0 78 80" fill="none" xmlns="http://www.w3.org/2000/svg">
<g id="magic-box 1">
<g id="Group">
<g id="Group_2">
<path id="Vector" d="M39.9977 29.3289C38.4735 29.3289 36.9605 29.5898 35.5243 30.1004L12.1028 38.4279L39.9977 49.0303L40.3848 48.7292V29.3371C40.2557 29.3334 40.1268 29.3289 39.9977 29.3289Z" fill="#05858D"/>
<g id="Group_3">
<path id="Vector_2" d="M25.2952 33.7374L12.1028 38.4279L25.146 43.3854C22.2106 40.8894 22.2763 36.1454 25.2952 33.7374Z" fill="#05858D"/>
</g>
<path id="Vector_3" d="M44.4709 30.1004C43.0348 29.5898 41.5218 29.3289 39.9976 29.3289V48.8741L67.8925 38.4279L44.4709 30.1004Z" fill="#12CDD9"/>
<path id="Vector_4" d="M39.9977 48.4053L35.2807 53.98C34.8898 54.5198 34.1892 54.7367 33.5615 54.5122L12.1028 46.8369V67.5041C12.1028 68.7293 12.8726 69.8223 14.0263 70.235L36.2181 78.1725C37.4309 78.6062 38.7096 78.8281 39.9976 78.8281C40.1266 78.8281 40.2557 78.8242 40.3846 78.8198V48.8755L39.9977 48.4053Z" fill="#12CDD9"/>
<g id="Group_4">
<path id="Vector_5" d="M17.6873 69.1003V48.8342L12.1028 46.8367V67.504C12.1028 68.7292 12.8726 69.8221 14.0263 70.2348L19.0489 72.0312C18.2032 71.3155 17.6873 70.2529 17.6873 69.1003Z" fill="#05858D"/>
</g>
<path id="Vector_6" d="M46.4338 54.6684C45.8061 54.8929 45.1056 54.6761 44.7145 54.1362L39.9976 48.4055V78.8281C41.2857 78.8281 42.5642 78.6064 43.7772 78.1725L65.969 70.235C67.1226 69.8223 67.8925 68.7293 67.8925 67.5041V46.9931L46.4338 54.6684Z" fill="#12CDD9"/>
<path id="Vector_7" d="M53.1532 4.65509C51.8565 3.9918 50.7972 2.93068 50.1369 1.63222C49.9934 1.35018 49.7055 1.17096 49.3891 1.17096C49.0725 1.17096 48.7847 1.35018 48.6412 1.63222C47.9809 2.93068 46.9217 3.99164 45.6249 4.65509C45.3438 4.79884 45.1655 5.08619 45.1655 5.40198V5.42261C45.1655 5.73496 45.3383 6.02324 45.6166 6.16528C46.9092 6.82451 47.9657 7.87859 48.6281 9.16924C48.7703 9.44643 49.0581 9.61831 49.3697 9.61831H49.4087C49.7203 9.61831 50.0081 9.44643 50.1503 9.16924C50.8127 7.87859 51.8693 6.82451 53.1618 6.16528C53.4401 6.0234 53.6129 5.73511 53.6129 5.42261V5.40198C53.6126 5.08635 53.4343 4.799 53.1532 4.65509Z" fill="#FFE02F"/>
<path id="Vector_8" d="M34.2417 8.11949C33.2713 7.62308 32.4786 6.82902 31.9844 5.8573C31.877 5.64621 31.6616 5.51215 31.4247 5.51215C31.1878 5.51215 30.9724 5.64621 30.865 5.8573C30.3708 6.82902 29.5781 7.62308 28.6077 8.11949C28.3974 8.22715 28.2639 8.44215 28.2639 8.6784V8.69386C28.2639 8.92761 28.3933 9.1434 28.6016 9.24965C29.5689 9.74293 30.3597 10.5318 30.8553 11.4978C30.9617 11.7053 31.1772 11.8339 31.4103 11.8339H31.4395C31.6727 11.8339 31.8881 11.7053 31.9945 11.4978C32.4902 10.5318 33.2809 9.74293 34.2483 9.24965C34.4566 9.1434 34.5859 8.92761 34.5859 8.69386V8.6784C34.5855 8.44215 34.452 8.22715 34.2417 8.11949Z" fill="#FFEA7E"/>
<path id="Vector_9" d="M48.7806 6.16528C48.5023 6.0234 48.3295 5.73511 48.3295 5.42261V5.40198C48.3295 5.08619 48.5078 4.79884 48.7889 4.65509C49.6317 4.22399 50.3733 3.62398 50.9711 2.90084C50.6491 2.5113 50.3681 2.08676 50.1369 1.63222C49.9934 1.35018 49.7055 1.17096 49.3891 1.17096C49.0726 1.17096 48.7847 1.35018 48.6412 1.63222C47.9809 2.93068 46.9217 3.99164 45.6249 4.65509C45.3438 4.79884 45.1655 5.08619 45.1655 5.40198V5.42261C45.1655 5.73496 45.3383 6.02324 45.6166 6.16528C46.9092 6.82451 47.9657 7.87859 48.6281 9.16924C48.7703 9.44643 49.0581 9.61831 49.3697 9.61831H49.4087C49.7203 9.61831 50.0081 9.44643 50.1503 9.16924C50.3789 8.72392 50.6553 8.30751 50.9713 7.925C50.3714 7.19905 49.627 6.597 48.7806 6.16528Z" fill="#FBC700"/>
<path id="Vector_10" d="M31.3356 9.24965C31.1274 9.1434 30.9981 8.92761 30.9981 8.69386V8.6784C30.9981 8.44215 31.1316 8.22699 31.3419 8.11949C31.8902 7.83902 32.3788 7.4609 32.7919 7.01215C32.4738 6.66652 32.1994 6.28011 31.9844 5.8573C31.8771 5.64621 31.6616 5.51215 31.4247 5.51215C31.1878 5.51215 30.9724 5.64621 30.865 5.8573C30.3708 6.82902 29.5781 7.62308 28.6077 8.11949C28.3974 8.22715 28.2639 8.44215 28.2639 8.6784V8.69386C28.2639 8.92761 28.3933 9.1434 28.6014 9.24965C29.5688 9.74293 30.3595 10.5318 30.8552 11.4978C30.9616 11.7053 31.177 11.8339 31.4102 11.8339H31.4394C31.6725 11.8339 31.888 11.7053 31.9944 11.4978C32.2078 11.082 32.4788 10.7015 32.7921 10.3607C32.3772 9.90996 31.8864 9.53058 31.3356 9.24965Z" fill="#FFE02F"/>
<path id="Vector_11" d="M72.0972 44.2329L67.8925 38.4279L39.9976 48.4053L44.7145 54.9173C45.1056 55.4572 45.8061 55.6741 46.4338 55.4495L71.3879 46.524C72.329 46.1876 72.6835 45.0421 72.0972 44.2329Z" fill="#12CDD9"/>
<path id="Vector_12" d="M7.89809 44.2329L12.1029 38.4279L39.9978 48.4053L35.2808 54.9173C34.8897 55.4572 34.1892 55.6741 33.5616 55.4495L8.60733 46.524C7.66637 46.1876 7.31183 45.0421 7.89809 44.2329Z" fill="#12CDD9"/>
<path id="Vector_13" d="M12.4125 45.892L16.6428 40.0519L12.1027 38.4279L7.89806 44.2329C7.3118 45.0421 7.66649 46.1876 8.60729 46.5242L12.5102 47.9202C12.0306 47.3741 11.9464 46.5356 12.4125 45.892Z" fill="#05858D"/>
</g>
<g id="Group_5">
<path id="Vector_14" d="M11.2612 37.7406L7.05658 43.5454C6.01171 44.9878 6.64204 47.0273 8.32035 47.6275L11.0385 48.5997V67.504C11.0385 69.2196 12.1239 70.7606 13.7394 71.3383L35.931 79.2758C38.5847 80.2252 41.5348 80.2575 44.2793 79.2758L66.4712 71.3383C68.0867 70.7606 69.172 69.2196 69.172 67.504V61.5224C69.172 60.8751 68.6475 60.3506 68.0001 60.3506C67.3528 60.3506 66.8282 60.8751 66.8282 61.5224V67.504C66.8282 68.2321 66.3676 68.8862 65.6819 69.1315L43.4899 77.069C42.7709 77.3262 42.0302 77.4998 41.2771 77.5879V52.0209L43.8731 55.6047C44.5604 56.5542 45.822 56.9519 46.9363 56.553C48.1782 56.1088 66.2787 49.6347 66.8284 49.438V56.0534C66.8284 56.7008 67.3529 57.2253 68.0003 57.2253C68.6476 57.2253 69.1722 56.7008 69.1722 56.0534V48.5997L71.8903 47.6275C73.5674 47.0276 74.1996 44.9884 73.1538 43.5452L73.154 43.5454L68.9493 37.7406C68.8295 37.5748 68.6193 37.4043 68.3928 37.3239L58.2346 33.7122C57.6246 33.4949 56.9546 33.8138 56.7379 34.4238C56.521 35.0337 56.8396 35.7037 57.4494 35.9205L64.5111 38.4314L41.2769 46.7415V30.5569C42.2679 30.6523 43.2423 30.869 44.1859 31.2047L52.2675 34.0782C52.8773 34.2954 53.5475 33.9766 53.7642 33.3666C53.9811 32.7567 53.6625 32.0867 53.0526 31.8698L44.9711 28.9964C41.9024 27.9051 38.4667 27.8485 35.239 28.9964L11.8176 37.3239C11.5942 37.4034 11.3868 37.5671 11.2612 37.7406ZM8.95458 44.9204L12.6434 39.8275L38.2397 48.9827C37.3711 50.1818 38.1284 49.1364 34.439 54.23C34.3541 54.347 34.1993 54.3945 34.0637 54.3462C33.6277 54.1903 9.56537 45.5837 9.10958 45.4207C8.9038 45.347 8.8263 45.0974 8.95458 44.9204ZM14.5284 69.1315C13.8428 68.8863 13.3822 68.2321 13.3822 67.504V49.438L33.2744 56.553C34.399 56.9553 35.6514 56.5444 36.3321 55.6116C36.3339 55.6092 36.3357 55.6072 36.3375 55.6048C36.3375 55.6047 36.3375 55.6047 36.3375 55.6047L38.9333 52.0209V77.5878C38.1802 77.4996 37.4394 77.326 36.7203 77.069L14.5284 69.1315ZM71.2558 44.9204C71.3839 45.0973 71.3064 45.347 71.101 45.4207C70.8664 45.5046 46.3933 54.2579 46.1469 54.3461C46.0112 54.3948 45.8562 54.3472 45.7714 54.23L41.9705 48.9827L67.567 39.8275L71.2558 44.9204ZM36.0243 31.2047C36.9679 30.8692 37.9422 30.6525 38.9331 30.5569V46.7415C37.9281 46.382 16.6044 38.7551 15.6991 38.4312L36.0243 31.2047Z" fill="#252836"/>
<path id="Vector_15" d="M41.2769 24.4213V9.7752C41.2769 9.12784 40.7524 8.6033 40.105 8.6033C39.4576 8.6033 38.9331 9.12784 38.9331 9.7752V24.4211C38.9331 25.0685 39.4576 25.593 40.105 25.593C40.7524 25.593 41.2769 25.0685 41.2769 24.4213Z" fill="#FF8700"/>
<path id="Vector_16" d="M55.6224 12.0156C55.2878 12.162 47.4107 15.7119 46.1084 25.4763C46.0149 26.1774 46.5596 26.8032 47.2715 26.8032C47.8498 26.8032 48.3531 26.3751 48.4317 25.786C48.9015 22.2626 50.4016 19.2424 52.89 16.8092C54.7601 14.9806 56.5243 14.1797 56.5639 14.162C57.1551 13.9018 57.4247 13.212 57.1658 12.6198C56.9065 12.0268 56.2161 11.7565 55.6224 12.0156Z" fill="#FF8700"/>
<path id="Vector_17" d="M53.241 27.9796C52.9194 28.5413 53.1141 29.2573 53.6759 29.5787C54.2368 29.9 54.9532 29.7061 55.275 29.1439C57.9969 24.3888 62.0401 22.5325 64.9528 21.8128C65.5811 21.6575 65.9645 21.0221 65.8092 20.3938C65.6539 19.7656 65.0184 19.3818 64.3903 19.5374C61.6423 20.2168 56.5398 22.2165 53.241 27.9796Z" fill="#FF8700"/>
<path id="Vector_18" d="M23.0445 12.6198C22.7852 13.2128 23.0557 13.9037 23.6487 14.1631C23.7185 14.1936 30.649 17.3163 31.7785 25.7861C31.8643 26.4297 32.4559 26.8783 33.0951 26.7929C33.7367 26.7072 34.1873 26.1179 34.1019 25.4763C32.7995 15.7119 24.9223 12.1618 24.5876 12.0156C23.9946 11.7565 23.304 12.027 23.0445 12.6198Z" fill="#FF8700"/>
<path id="Vector_19" d="M14.4009 20.3938C14.2458 21.0221 14.6292 21.6575 15.2573 21.8128C18.17 22.5326 22.2134 24.3889 24.9352 29.1439C25.2569 29.7061 25.9733 29.9001 26.5343 29.5787C27.096 29.2571 27.2907 28.5412 26.9691 27.9796C23.6705 22.2165 18.5677 20.2167 15.8198 19.5374C15.1911 19.3819 14.5562 19.7659 14.4009 20.3938Z" fill="#FF8700"/>
<path id="Vector_20" d="M61.5547 11.9174C60.9073 11.9174 60.3828 12.4419 60.3828 13.0893C60.3828 13.7366 60.9073 14.2611 61.5547 14.2611H62.3708V15.0772C62.3708 15.7246 62.8953 16.2491 63.5427 16.2491C64.19 16.2491 64.7145 15.7246 64.7145 15.0772V14.2611H65.5306C66.178 14.2611 66.7025 13.7366 66.7025 13.0893C66.7025 12.4419 66.178 11.9174 65.5306 11.9174H64.7145V11.1014C64.7145 10.4541 64.19 9.92957 63.5427 9.92957C62.8953 9.92957 62.3708 10.4541 62.3708 11.1014V11.9174H61.5547Z" fill="#FF8700"/>
<path id="Vector_21" d="M14.3666 28.1569H13.5505C12.9032 28.1569 12.3787 28.6815 12.3787 29.3288C12.3787 29.9761 12.9032 30.5007 13.5505 30.5007H14.3666V31.3168C14.3666 31.9641 14.8912 32.4886 15.5385 32.4886C16.1858 32.4886 16.7104 31.9641 16.7104 31.3168V30.5007H17.5265C18.1738 30.5007 18.6983 29.9761 18.6983 29.3288C18.6983 28.6815 18.1738 28.1569 17.5265 28.1569H16.7104V27.3408C16.7104 26.6935 16.1858 26.169 15.5385 26.169C14.8912 26.169 14.3666 26.6935 14.3666 27.3408V28.1569Z" fill="#FF8700"/>
<path id="Vector_22" d="M53.7945 3.61195C52.7235 3.06397 51.8336 2.17223 51.2889 1.10096C50.5417 -0.367036 48.4512 -0.36688 47.704 1.10127C47.1595 2.17223 46.2695 3.06413 45.1987 3.61179C43.7315 4.36212 43.7413 6.46966 45.1916 7.20921C46.2579 7.75297 47.1464 8.63908 47.6929 9.70441C48.4367 11.1535 50.5564 11.1538 51.3004 9.70426C51.8469 8.63924 52.7354 7.75312 53.8018 7.20905C55.2515 6.46966 55.262 4.36274 53.7945 3.61195ZM49.4964 8.13157C48.8236 7.02655 47.8825 6.08544 46.7775 5.41245C47.8829 4.73963 48.8237 3.79945 49.4966 2.69521C50.1696 3.79945 51.1102 4.73963 52.2154 5.41245C51.1105 6.08544 50.1694 7.02639 49.4964 8.13157Z" fill="#252836"/>
<path id="Vector_23" d="M29.9198 12.0331C30.5856 13.33 32.4785 13.332 33.1444 12.0331C33.5254 11.2905 34.1446 10.6729 34.8879 10.2938C36.1768 9.6366 36.2051 7.75313 34.8833 7.0764C34.8832 7.07624 34.883 7.07624 34.8829 7.07608C34.1365 6.69436 33.5163 6.07294 33.1364 5.32605C32.4685 4.01274 30.5962 4.01243 29.9278 5.32621C29.5481 6.07278 28.9279 6.69436 28.1806 7.07655C26.8784 7.7436 26.8685 9.62691 28.1765 10.2938C28.9196 10.6727 29.5389 11.2905 29.9198 12.0331ZM31.532 7.18734C31.9445 7.76532 32.4536 8.27423 33.0321 8.68643C32.4539 9.09878 31.9445 9.60801 31.532 10.1865C31.1197 9.60832 30.6105 9.09878 30.0322 8.68643C30.6106 8.27408 31.1198 7.76532 31.532 7.18734Z" fill="#252836"/>
</g>
</g>
</g>
</svg>
