<svg width="25" height="25" viewBox="0 0 25 25" fill="none" xmlns="http://www.w3.org/2000/svg">
<g id="globe" clip-path="url(#clip0_168_1697)">
<g id="Layer 2">
<g id="globe_2">
<path id="Vector" d="M22.5 12.4144C22.5 11.1228 22.2413 9.84383 21.7388 8.65056C21.2362 7.4573 20.4997 6.37307 19.5711 5.45978C18.6425 4.54649 17.5401 3.82203 16.3268 3.32777C15.1136 2.8335 13.8132 2.5791 12.5 2.5791C9.84784 2.5791 7.3043 3.61531 5.42893 5.45978C3.55357 7.30425 2.5 9.80588 2.5 12.4144C2.5 15.0228 3.55357 17.5245 5.42893 19.3689C7.3043 21.2134 9.84784 22.2496 12.5 22.2496C15.1522 22.2496 17.6957 21.2134 19.5711 19.3689C21.4464 17.5245 22.5 15.0228 22.5 12.4144ZM20.43 11.4308H17.5C17.3351 9.11772 16.5293 6.89319 15.17 4.99857C16.5665 5.48637 17.7977 6.34607 18.7265 7.48182C19.6553 8.61757 20.245 9.98472 20.43 11.4308ZM9.58 13.3979H15.5C15.2441 15.8278 14.1911 18.1097 12.5 19.899C10.8101 18.1172 9.78119 15.8265 9.58 13.3979ZM9.58 11.4308C9.81289 9.01315 10.8376 6.7352 12.5 4.93956C14.2047 6.71593 15.2601 8.99959 15.5 11.4308H9.58ZM9.94 4.96907C8.57355 6.87418 7.7548 9.10648 7.57 11.4308H4.57C4.7589 9.96685 5.36261 8.58463 6.31217 7.44202C7.26172 6.29941 8.51886 5.44247 9.94 4.96907ZM4.57 13.3979H7.57C7.73469 15.7202 8.54788 17.9529 9.92 19.8498C8.50397 19.3741 7.25199 18.5173 6.30627 17.3768C5.36055 16.2363 4.75902 14.8578 4.57 13.3979ZM15.12 19.84C16.4884 17.9424 17.3107 15.7168 17.5 13.3979H20.45C20.2609 14.8537 19.6615 16.2285 18.7196 17.3669C17.7778 18.5054 16.5309 19.362 15.12 19.84Z" fill="#92929D"/>
</g>
</g>
</g>
<defs>
<clipPath id="clip0_168_1697">
<rect width="24" height="23.6046" fill="white" transform="translate(0.5 0.611816)"/>
</clipPath>
</defs>
</svg>
