<svg width="24" height="24" viewBox="0 0 24 24" fill="none" xmlns="http://www.w3.org/2000/svg">
<g id="Edit">
<g id="Icon - Edit">
<g id="Edit-Square">
<path id="Combined-Shape" fill-rule="evenodd" clip-rule="evenodd" d="M11.492 2.03689C11.906 2.03689 12.242 2.37289 12.242 2.78689C12.242 3.20089 11.906 3.53689 11.492 3.53689H7.753C5.169 3.53689 3.5 5.30689 3.5 8.04589V16.3599C3.5 19.0989 5.169 20.8689 7.753 20.8689H16.577C19.161 20.8689 20.831 19.0989 20.831 16.3599V12.3319C20.831 11.9179 21.167 11.5819 21.581 11.5819C21.995 11.5819 22.331 11.9179 22.331 12.3319V16.3599C22.331 19.9539 20.018 22.3689 16.577 22.3689H7.753C4.312 22.3689 2 19.9539 2 16.3599V8.04589C2 4.45189 4.312 2.03689 7.753 2.03689H11.492ZM20.2016 2.91549L21.4186 4.13249C22.0116 4.72449 22.3376 5.51149 22.3366 6.34949C22.3366 7.18749 22.0106 7.97349 21.4186 8.56449L13.9096 16.0735C13.3586 16.6245 12.6246 16.9285 11.8446 16.9285H8.0986C7.8966 16.9285 7.7026 16.8465 7.5616 16.7015C7.4206 16.5575 7.3436 16.3625 7.3486 16.1595L7.4426 12.3805C7.4616 11.6285 7.7646 10.9215 8.2966 10.3885H8.2976L15.7706 2.91549C16.9926 1.69549 18.9796 1.69549 20.2016 2.91549ZM15.155 5.65149L9.3576 11.4495C9.0986 11.7085 8.9516 12.0525 8.9426 12.4175L8.8676 15.4285H11.8446C12.2246 15.4285 12.5806 15.2815 12.8496 15.0125L18.682 9.17849L15.155 5.65149ZM16.8306 3.97649L16.215 4.59049L19.742 8.11849L20.3586 7.50349C20.6666 7.19549 20.8366 6.78549 20.8366 6.34949C20.8366 5.91249 20.6666 5.50149 20.3586 5.19349L19.1416 3.97649C18.5046 3.34149 17.4686 3.34149 16.8306 3.97649Z" fill="#12CDD9"/>
</g>
</g>
</g>
</svg>
