<svg width="25" height="25" viewBox="0 0 25 25" fill="none" xmlns="http://www.w3.org/2000/svg">
<g id="left-arrow 2">
<g id="Group">
<g id="Group_2">
<path id="Vector" d="M13.8117 12.5973L8.71744 17.7486C8.57717 17.8901 8.5 18.0793 8.5 18.281C8.5 18.4828 8.57717 18.6719 8.71744 18.8136L9.16382 19.2648C9.30387 19.4067 9.49109 19.4849 9.69059 19.4849C9.89009 19.4849 10.0771 19.4067 10.2172 19.2648L16.2828 13.1317C16.4235 12.9895 16.5006 12.7996 16.5 12.5976C16.5006 12.3948 16.4236 12.205 16.2828 12.0627L10.2229 5.9356C10.0827 5.79365 9.89574 5.71551 9.69612 5.71551C9.49662 5.71551 9.30963 5.79365 9.16936 5.9356L8.72308 6.38674C8.43269 6.68038 8.43269 7.15838 8.72308 7.45191L13.8117 12.5973Z" fill="#12CDD9"/>
</g>
</g>
</g>
</svg>
