<svg width="21" height="21" viewBox="0 0 21 21" fill="none" xmlns="http://www.w3.org/2000/svg">
<g id="information 1" clip-path="url(#clip0_184_2884)">
<g id="Group">
<g id="Group_2">
<path id="Vector" d="M10.5 0.694824C5.00742 0.694824 0.5 5.20225 0.5 10.6948C0.5 16.1874 5.00742 20.6948 10.5 20.6948C15.9926 20.6948 20.5 16.1874 20.5 10.6948C20.5 5.20225 15.9926 0.694824 10.5 0.694824ZM11.6719 15.3823C11.6719 16.0283 11.146 16.5542 10.5 16.5542C9.85398 16.5542 9.32812 16.0283 9.32812 15.3823V9.52295C9.32812 8.87693 9.85398 8.35107 10.5 8.35107C11.146 8.35107 11.6719 8.87693 11.6719 9.52295V15.3823ZM10.5 7.1792C9.85398 7.1792 9.32812 6.65334 9.32812 6.00732C9.32812 5.36131 9.85398 4.83545 10.5 4.83545C11.146 4.83545 11.6719 5.36131 11.6719 6.00732C11.6719 6.65334 11.146 7.1792 10.5 7.1792Z" fill="#92929D"/>
</g>
</g>
</g>
<defs>
<clipPath id="clip0_184_2884">
<rect width="20" height="20" fill="white" transform="translate(0.5 0.694824)"/>
</clipPath>
</defs>
</svg>
