<svg width="16" height="16" viewBox="0 0 16 16" fill="none" xmlns="http://www.w3.org/2000/svg">
<g id="filter" clip-path="url(#clip0_58_186)">
<g id="Layer 2">
<g id="options-2">
<path id="Vector" d="M12.6667 6C12.2541 6.00116 11.8519 6.12992 11.5153 6.36863C11.1788 6.60733 10.9242 6.9443 10.7867 7.33333H2.00004C1.82323 7.33333 1.65366 7.40357 1.52864 7.5286C1.40361 7.65362 1.33337 7.82319 1.33337 8C1.33337 8.17681 1.40361 8.34638 1.52864 8.4714C1.65366 8.59643 1.82323 8.66667 2.00004 8.66667H10.7867C10.909 9.01258 11.1241 9.31819 11.4085 9.55005C11.6928 9.7819 12.0355 9.93107 12.3989 9.98122C12.7624 10.0314 13.1327 9.98057 13.4692 9.83439C13.8057 9.68821 14.0955 9.45227 14.3069 9.1524C14.5183 8.85252 14.6432 8.50027 14.6678 8.1342C14.6924 7.76812 14.6159 7.40233 14.4465 7.07685C14.2772 6.75137 14.0216 6.47875 13.7076 6.28882C13.3937 6.09889 13.0336 5.99897 12.6667 6Z" fill="white"/>
<path id="Vector_2" d="M2.00004 4.66667H2.78671C2.92684 5.05277 3.18246 5.38636 3.51882 5.62211C3.85518 5.85786 4.25596 5.98432 4.66671 5.98432C5.07745 5.98432 5.47824 5.85786 5.8146 5.62211C6.15096 5.38636 6.40657 5.05277 6.54671 4.66667H14C14.1769 4.66667 14.3464 4.59643 14.4714 4.47141C14.5965 4.34638 14.6667 4.17681 14.6667 4C14.6667 3.82319 14.5965 3.65362 14.4714 3.5286C14.3464 3.40358 14.1769 3.33334 14 3.33334H6.54671C6.40657 2.94724 6.15096 2.61364 5.8146 2.3779C5.47824 2.14215 5.07745 2.01569 4.66671 2.01569C4.25596 2.01569 3.85518 2.14215 3.51882 2.3779C3.18246 2.61364 2.92684 2.94724 2.78671 3.33334H2.00004C1.82323 3.33334 1.65366 3.40358 1.52864 3.5286C1.40361 3.65362 1.33337 3.82319 1.33337 4C1.33337 4.17681 1.40361 4.34638 1.52864 4.47141C1.65366 4.59643 1.82323 4.66667 2.00004 4.66667Z" fill="white"/>
<path id="Vector_3" d="M14 11.3333H9.21337C9.07324 10.9472 8.81762 10.6136 8.48126 10.3779C8.14491 10.1422 7.74412 10.0157 7.33337 10.0157C6.92263 10.0157 6.52184 10.1422 6.18548 10.3779C5.84913 10.6136 5.59351 10.9472 5.45337 11.3333H2.00004C1.82323 11.3333 1.65366 11.4036 1.52864 11.5286C1.40361 11.6536 1.33337 11.8232 1.33337 12C1.33337 12.1768 1.40361 12.3464 1.52864 12.4714C1.65366 12.5964 1.82323 12.6667 2.00004 12.6667H5.45337C5.59351 13.0528 5.84913 13.3864 6.18548 13.6221C6.52184 13.8579 6.92263 13.9843 7.33337 13.9843C7.74412 13.9843 8.14491 13.8579 8.48126 13.6221C8.81762 13.3864 9.07324 13.0528 9.21337 12.6667H14C14.1769 12.6667 14.3464 12.5964 14.4714 12.4714C14.5965 12.3464 14.6667 12.1768 14.6667 12C14.6667 11.8232 14.5965 11.6536 14.4714 11.5286C14.3464 11.4036 14.1769 11.3333 14 11.3333Z" fill="white"/>
</g>
</g>
</g>
<defs>
<clipPath id="clip0_58_186">
<rect width="16" height="16" fill="white"/>
</clipPath>
</defs>
</svg>
