<svg width="70" height="72" viewBox="0 0 70 72" fill="none" xmlns="http://www.w3.org/2000/svg">
<g id="_x38_59-Interface_x2C__Tick_x2C__User">
<g id="Group">
<path id="Vector" d="M68.1765 15.0469C69.039 15.0469 69.739 15.7469 69.739 16.6094C69.739 17.4719 69.039 18.1719 68.1765 18.1719C67.314 18.1719 66.614 17.4719 66.614 16.6094C66.614 15.7469 67.314 15.0469 68.1765 15.0469Z" fill="#94D4FF"/>
<path id="Vector_2" d="M68.1765 55.6719C69.039 55.6719 69.739 56.3719 69.739 57.2344C69.739 58.0969 69.039 58.7969 68.1765 58.7969C67.314 58.7969 66.614 58.0969 66.614 57.2344C66.614 56.3719 67.314 55.6719 68.1765 55.6719Z" fill="#94D4FF"/>
<path id="Vector_3" d="M60.364 65.0469C62.0906 65.0469 63.489 66.4453 63.489 68.1719C63.489 69.8984 62.0906 71.2969 60.364 71.2969C58.6375 71.2969 57.239 69.8984 57.239 68.1719C57.239 66.4453 58.6375 65.0469 60.364 65.0469Z" fill="#12CDD9"/>
<path id="Vector_4" d="M57.239 0.984375C58.1015 0.984375 58.8015 1.68437 58.8015 2.54688C58.8015 3.40937 58.1015 4.10938 57.239 4.10938C56.3765 4.10938 55.6765 3.40937 55.6765 2.54688C55.6765 1.68437 56.3765 0.984375 57.239 0.984375Z" fill="#94D4FF"/>
<path id="Vector_5" d="M35.364 5.67188C18.1046 5.67188 4.11401 19.6625 4.11401 36.9219C4.11401 54.1813 18.1046 68.1719 35.364 68.1719C52.6234 68.1719 66.614 54.1813 66.614 36.9219C66.614 19.6625 52.6234 5.67188 35.364 5.67188Z" fill="#FF8700"/>
<path id="Vector_6" d="M35.364 60.3594C22.4203 60.3594 11.9265 49.8656 11.9265 36.9219C11.9265 23.9781 22.4203 13.4844 35.364 13.4844C48.3078 13.4844 58.8015 23.9781 58.8015 36.9219C58.8015 49.8656 48.3078 60.3594 35.364 60.3594Z" fill="white"/>
<path id="Vector_7" d="M46.9811 29.5344C48.2015 30.7547 48.2015 32.7328 46.9811 33.9531L35.9326 45.0031L31.5139 49.4219L27.0935 45.0031L23.7795 41.6875C23.1703 41.0781 22.864 40.2781 22.864 39.4781C22.864 38.6781 23.1703 37.8781 23.7795 37.2686C25 36.0483 26.9781 36.0483 28.1982 37.2686L31.5139 40.5826L42.5625 29.5344C43.1734 28.925 43.9718 28.6187 44.7718 28.6187C45.5718 28.6187 46.3703 28.925 46.9811 29.5344Z" fill="#22B07D"/>
<path id="Vector_8" d="M11.9265 68.1719C12.789 68.1719 13.489 68.8719 13.489 69.7344C13.489 70.5969 12.789 71.2969 11.9265 71.2969C11.0639 71.2969 10.364 70.5969 10.364 69.7344C10.364 68.8719 11.0639 68.1719 11.9265 68.1719Z" fill="#94D4FF"/>
<path id="Vector_9" d="M8.02026 4.10938C10.1781 4.10938 11.9265 5.85781 11.9265 8.01562C11.9265 10.1734 10.1781 11.9219 8.02026 11.9219C5.86229 11.9219 4.11401 10.1734 4.11401 8.01562C4.11401 5.85781 5.86229 4.10938 8.02026 4.10938Z" fill="#12CDD9"/>
<path id="Vector_10" d="M2.55151 16.6094C3.41401 16.6094 4.11401 17.3094 4.11401 18.1719C4.11401 19.0344 3.41401 19.7344 2.55151 19.7344C1.68886 19.7344 0.989014 19.0344 0.989014 18.1719C0.989014 17.3094 1.68886 16.6094 2.55151 16.6094Z" fill="#94D4FF"/>
<path id="Vector_11" d="M2.55151 55.6719C3.41401 55.6719 4.11401 56.3719 4.11401 57.2344C4.11401 58.0969 3.41401 58.7969 2.55151 58.7969C1.68886 58.7969 0.989014 58.0969 0.989014 57.2344C0.989014 56.3719 1.68886 55.6719 2.55151 55.6719Z" fill="#94D4FF"/>
<g id="Group_2">
<path id="Vector_12" d="M54.114 36.9219C54.114 36.0589 53.4143 35.3594 52.5515 35.3594C51.6887 35.3594 50.989 36.0589 50.989 36.9219C50.989 45.5377 43.9798 52.5469 35.364 52.5469C34.501 52.5469 33.8015 53.2466 33.8015 54.1094V60.3063C34.3181 60.3403 34.8389 60.3594 35.364 60.3594C35.8892 60.3594 36.4098 60.3403 36.9265 60.3063V55.6073C46.5368 54.8106 54.114 46.7344 54.114 36.9219Z" fill="#12CDD9" fill-opacity="0.3"/>
<path id="Vector_13" d="M16.614 36.9219C16.614 37.7847 17.3135 38.4844 18.1765 38.4844C19.0393 38.4844 19.739 37.7847 19.739 36.9219C19.739 28.3062 26.7482 21.2969 35.364 21.2969C36.2268 21.2969 36.9265 20.5973 36.9265 19.7344V13.5375C36.4098 13.5034 35.8892 13.4844 35.364 13.4844C34.8389 13.4844 34.3181 13.5034 33.8015 13.5375V18.2364C24.1912 19.0331 16.614 27.1094 16.614 36.9219Z" fill="#12CDD9" fill-opacity="0.3"/>
</g>
</g>
</g>
</svg>
