<svg width="80" height="80" viewBox="0 0 80 80" fill="none" xmlns="http://www.w3.org/2000/svg">
<g id="Group">
<g id="Group_2">
<path id="Vector" fill-rule="evenodd" clip-rule="evenodd" d="M48.7512 7.81218C35.8077 7.81218 25.3147 18.305 25.3147 31.2487C25.3147 44.1924 35.8075 54.6852 48.7512 54.6852C49.3222 54.6852 49.8884 54.6646 50.4488 54.6246C50.4043 54.3962 50.381 54.161 50.381 53.9214C50.381 51.8649 52.0634 50.1825 54.1199 50.1825H54.9263C54.9263 46.0526 58.2741 42.7047 62.4041 42.7047C64.5033 42.7047 66.4004 43.5696 67.7583 44.9627C70.545 41.1069 72.1875 36.3698 72.1875 31.2489C72.1878 18.3052 61.6949 7.81218 48.7512 7.81218Z" fill="#12CDD9"/>
<path id="Vector_2" fill-rule="evenodd" clip-rule="evenodd" d="M25.3148 31.2487C25.3148 18.305 35.8077 7.81218 48.7514 7.81218C61.6951 7.81218 72.1879 18.305 72.1879 31.2487C72.1879 36.3696 70.5455 41.1069 67.7587 44.9624C68.1629 45.3771 68.5195 45.8384 68.8195 46.3378C69.2293 46.2248 69.6607 46.1642 70.1063 46.1642C71.4475 46.1642 72.661 46.7109 73.5359 47.5938C76.6337 42.9061 78.4375 37.2883 78.4375 31.2489C78.4375 14.8536 65.1465 1.56259 48.7512 1.56259C40.3188 1.56259 32.7074 5.07854 27.303 10.7244C24.8333 13.3045 22.8246 16.3293 21.4092 19.6669C19.8999 23.2256 19.0649 27.1397 19.0649 31.2489C19.0649 37.7867 21.1784 43.831 24.7594 48.7357C26.5774 51.2257 28.7738 53.422 31.2637 55.2402C36.1686 58.8213 42.2131 60.935 48.7512 60.935C53.6393 60.935 58.2513 59.7532 62.3177 57.6603C59.577 57.6603 56.8364 57.6603 54.0956 57.6603C52.2966 57.6603 50.7813 56.3325 50.4488 54.6246C49.8884 54.6648 49.3221 54.6853 48.7512 54.6853C35.8077 54.6853 25.3148 44.1924 25.3148 31.2487Z" fill="#FF8700"/>
<path id="Vector_3" fill-rule="evenodd" clip-rule="evenodd" d="M21.4091 19.6667C22.8246 16.3292 24.8333 13.3043 27.3029 10.7243C26.4893 9.20463 24.8867 8.17061 23.0426 8.17061C22.5968 8.17061 22.1654 8.23123 21.7558 8.34419C20.4485 6.16741 18.0647 4.71091 15.3407 4.71091C11.2107 4.71091 7.86291 8.05889 7.86291 12.1887H7.05654C5.00006 12.1887 3.31763 13.8712 3.31763 15.9276C3.31763 17.9599 4.9924 19.6665 7.03201 19.6665H21.4091V19.6667Z" fill="#12CDD9"/>
<path id="Vector_4" fill-rule="evenodd" clip-rule="evenodd" d="M62.4042 42.7045C58.2742 42.7045 54.9264 46.0525 54.9264 50.1823H54.12C52.0635 50.1823 50.3811 51.8647 50.3811 53.9212C50.3811 54.1609 50.4044 54.3962 50.4489 54.6245C50.7814 56.3322 52.2965 57.6601 54.0956 57.6601H62.3178H74.9223C76.8558 57.6601 78.4378 56.0782 78.4378 54.1447C78.4378 52.211 76.856 50.6292 74.9223 50.6292C74.8342 49.4483 74.3214 48.3857 73.5363 47.5935C72.6611 46.7107 71.4478 46.1641 70.1066 46.1641C69.6608 46.1641 69.2294 46.2247 68.8197 46.3376C68.5199 45.8383 68.1634 45.3769 67.759 44.9622C66.4005 43.5695 64.5035 42.7045 62.4042 42.7045Z" fill="#12CDD9"/>
<path id="Vector_5" fill-rule="evenodd" clip-rule="evenodd" d="M25.1383 61.6323L18.3673 54.8614L3.09338 69.4987C1.05611 71.536 1.05611 74.8694 3.09338 76.9067C5.13064 78.944 8.46409 78.944 10.5014 76.9067L25.1383 61.6323Z" fill="#FF8700"/>
<path id="Vector_6" fill-rule="evenodd" clip-rule="evenodd" d="M18.3672 54.8614L25.1382 61.6323L31.2637 55.2401C28.7736 53.4219 26.5775 51.2256 24.7594 48.7355L18.3672 54.8614Z" fill="#FFC144"/>
</g>
<g id="Group_3">
<path id="Vector_7" d="M40.9398 32.8113C41.8028 32.8113 42.5024 32.1117 42.5024 31.2488C42.5024 30.3858 41.8028 29.6863 40.9398 29.6863H40.9388C40.0758 29.6863 39.3767 30.3858 39.3767 31.2488C39.3767 32.1117 40.0769 32.8113 40.9398 32.8113Z" fill="black"/>
<path id="Vector_8" d="M48.7518 32.8113C49.6148 32.8113 50.3143 32.1117 50.3143 31.2488C50.3143 30.3858 49.6148 29.6863 48.7518 29.6863H48.7508C47.8878 29.6863 47.1887 30.3858 47.1887 31.2488C47.1887 32.1117 47.8889 32.8113 48.7518 32.8113Z" fill="black"/>
<path id="Vector_9" d="M56.5641 32.8113C57.4271 32.8113 58.1266 32.1117 58.1266 31.2488C58.1266 30.3858 57.4271 29.6863 56.5641 29.6863H56.563C55.7 29.6863 55.001 30.3858 55.001 31.2488C55.001 32.1117 55.7011 32.8113 56.5641 32.8113Z" fill="black"/>
<path id="Vector_10" d="M76.254 49.244C76.0743 48.6159 75.8003 48.0277 75.4489 47.495C78.4295 42.6076 79.9999 37.0134 79.9999 31.2488C79.9999 14.0183 65.9818 9.15527e-05 48.7512 9.15527e-05C40.5356 9.15527e-05 33.0503 3.18699 27.4666 8.38959C26.2903 7.26495 24.7064 6.60842 23.0427 6.60842C22.8518 6.60842 22.6613 6.61685 22.472 6.63373C20.7717 4.46116 18.1286 3.14871 15.3409 3.14871C10.8757 3.14871 7.15635 6.40218 6.42935 10.6634C3.80055 10.9746 1.75516 13.2169 1.75516 15.9279C1.75516 18.851 4.12225 21.2292 7.03198 21.2292H19.1498C18.0818 24.3758 17.5025 27.7458 17.5025 31.2488C17.5025 37.6307 19.4255 43.5719 22.7226 48.5234L2.01234 68.3706C2.00437 68.3783 1.9964 68.3861 1.98859 68.3939C-0.662864 71.0455 -0.662864 75.3598 1.98859 78.0115C3.31432 79.3372 5.05581 80.0001 6.7973 80.0001C8.53879 80.0001 10.2803 79.3372 11.606 78.0115C11.6138 78.0036 11.6216 77.9957 11.6293 77.9877L31.4758 57.2768C36.4277 60.574 42.369 62.4974 48.7512 62.4974C53.6535 62.4974 58.3415 61.3959 62.691 59.2227H74.922C77.7219 59.2227 79.9999 56.9446 79.9999 54.1448C79.9999 51.8055 78.41 49.8306 76.254 49.244ZM7.03214 18.1042C5.86562 18.1042 4.88019 17.1075 4.88019 15.9277C4.88019 14.7276 5.85656 13.7513 7.05667 13.7513H7.86304C8.72597 13.7513 9.42548 13.0517 9.42548 12.1888C9.42548 8.92707 12.0791 6.27343 15.3409 6.27343C17.4376 6.27343 19.3351 7.34823 20.4164 9.14878C20.7777 9.75016 21.4953 10.0372 22.1714 9.85047C22.4537 9.77266 22.7468 9.73313 23.0427 9.73313C23.886 9.73313 24.6892 10.0634 25.2892 10.63C23.3246 12.8629 21.6729 15.3773 20.4033 18.1044H7.03214V18.1042ZM9.38579 75.8126C7.95179 77.2351 5.62782 77.2315 4.19834 75.8019C2.76872 74.3724 2.76512 72.0484 4.18756 70.6143L18.3442 57.0476L22.9521 61.6556L9.38579 75.8126ZM25.1144 59.3988L20.6006 54.8849L24.598 51.0541C25.9015 52.6411 27.3582 54.0976 28.945 55.4013L25.1144 59.3988ZM20.6275 31.2487C20.6275 15.7412 33.2439 3.12481 48.7514 3.12481C64.2589 3.12481 76.8752 15.7412 76.8752 31.2487C76.8752 36.2336 75.5712 41.0759 73.0907 45.3479C72.1959 44.8714 71.1784 44.6017 70.1063 44.6017C70.033 44.6017 69.9599 44.603 69.8869 44.6055C72.4185 40.6116 73.7504 36.0216 73.7504 31.2488C73.7504 17.4644 62.5358 6.24984 48.7514 6.24984C44.7003 6.24984 40.6747 7.24324 37.1097 9.12269C36.3464 9.52517 36.0538 10.4701 36.4561 11.2335C36.8584 11.9968 37.8035 12.2893 38.5669 11.8871C41.6843 10.2433 45.2061 9.37455 48.7512 9.37455C60.8126 9.37455 70.6253 19.1873 70.6253 31.2487C70.6253 35.3183 69.5193 39.2355 67.4139 42.6654C65.9482 41.6906 64.2065 41.1422 62.4044 41.1422C57.9393 41.1422 54.2197 44.3958 53.4929 48.6569C51.1272 48.9369 49.2342 50.7807 48.8789 53.1228C48.8381 53.1228 48.7956 53.1228 48.7514 53.1228C36.69 53.1228 26.8773 43.3101 26.8773 31.2487C26.8773 27.703 27.7458 24.1816 29.389 21.065C29.7915 20.3016 29.499 19.3566 28.7356 18.9542C27.9724 18.5517 27.0273 18.8443 26.6248 19.6076C24.7456 23.1718 23.7522 27.1973 23.7522 31.2487C23.7522 45.0331 34.9666 56.2477 48.7512 56.2477C48.9818 56.2477 49.1728 56.247 49.3528 56.2439C50.0368 57.6479 51.3206 58.7054 52.8668 59.0774C51.5167 59.2738 50.1437 59.3725 48.7514 59.3725C33.2437 59.3725 20.6275 46.7562 20.6275 31.2487ZM74.9222 56.0978H54.0955C52.929 56.0978 51.9436 55.1011 51.9436 53.9213C51.9436 52.7212 52.92 51.7449 54.1201 51.7449H54.9264C55.7894 51.7449 56.4889 51.0454 56.4889 50.1824C56.4889 46.9207 59.1425 44.267 62.4043 44.267C64.5012 44.267 66.3985 45.3418 67.4798 47.1422C67.8409 47.7438 68.5585 48.0308 69.2348 47.8439C69.5173 47.766 69.8104 47.7266 70.1061 47.7266C71.8067 47.7266 73.2376 49.0526 73.364 50.7455C73.4248 51.5611 74.1042 52.1917 74.922 52.1917C75.999 52.1917 76.8751 53.0678 76.8751 54.1448C76.8751 55.2218 75.999 56.0978 74.9222 56.0978Z" fill="black"/>
<path id="Vector_11" d="M32.1792 16.2392C33.0421 16.2392 33.7417 15.5396 33.7417 14.6767C33.7417 13.8137 33.0421 13.1142 32.1792 13.1142H32.1781C31.3151 13.1142 30.6162 13.8137 30.6162 14.6767C30.6162 15.5396 31.3162 16.2392 32.1792 16.2392Z" fill="black"/>
</g>
</g>
</svg>
