<svg width="25" height="25" viewBox="0 0 25 25" fill="none" xmlns="http://www.w3.org/2000/svg">
<g id="notification (6) 1">
<path id="Vector" d="M15.2825 19.8179C15.2825 20.7914 14.7547 21.5365 13.8977 22.0236C13.0409 22.5104 11.9851 22.5104 11.1299 22.0236C10.2726 21.5365 9.74512 20.7914 9.74512 19.8179" fill="#92929D"/>
<path id="Vector_2" d="M12.5127 2.81885C13.2679 2.81885 13.8762 3.27678 13.8762 3.98098C13.8762 4.42422 13.8919 4.75495 14.1751 4.83966C16.5834 5.55488 18.1276 7.23134 18.1276 9.40847V13.0677C18.1276 14.7442 18.825 15.0835 19.7026 15.7248C20.9735 16.6519 20.6834 18.5825 19.225 18.5812H5.80097C4.34257 18.5825 4.05243 16.6519 5.32337 15.7248C6.1999 15.0835 6.8983 14.7442 6.8983 13.0677V9.40847C6.8983 7.23134 8.44257 5.55488 10.8508 4.83966C11.1332 4.75495 11.1498 4.42422 11.1498 3.98098C11.15 3.27678 11.7586 2.81885 12.5127 2.81885Z" fill="#92929D"/>
</g>
</svg>
